<?xml version="1.0" encoding="UTF-8"?>
<!DOCTYPE svg PUBLIC "-//W3C//DTD SVG 1.1//EN" "http://www.w3.org/Graphics/SVG/1.1/DTD/svg11.dtd">
<svg xmlns="http://www.w3.org/2000/svg" version="1.1" width="1400px" height="1400px" style="shape-rendering:geometricPrecision; text-rendering:geometricPrecision; image-rendering:optimizeQuality; fill-rule:evenodd; clip-rule:evenodd" xmlns:xlink="http://www.w3.org/1999/xlink">
<g><path style="opacity:1" fill="#fefefe" d="M -0.5,-0.5 C 466.167,-0.5 932.833,-0.5 1399.5,-0.5C 1399.5,466.167 1399.5,932.833 1399.5,1399.5C 932.833,1399.5 466.167,1399.5 -0.5,1399.5C -0.5,932.833 -0.5,466.167 -0.5,-0.5 Z"/></g>
<g><path style="opacity:1" fill="#fff1fe" d="M 275.5,624.5 C 252.758,624.178 230.092,624.511 207.5,625.5C 218.48,624.168 229.813,623.501 241.5,623.5C 253.005,623.5 264.338,623.833 275.5,624.5 Z"/></g>
<g><path style="opacity:1" fill="#fef1fe" d="M 696.5,624.5 C 674.758,624.178 653.091,624.512 631.5,625.5C 631.389,624.883 631.056,624.383 630.5,624C 652.671,623.17 674.671,623.337 696.5,624.5 Z"/></g>
<g><path style="opacity:1" fill="#09cf96" d="M 934.5,687.5 C 934.814,698.255 934.147,708.922 932.5,719.5C 923.541,748.622 904.207,767.122 874.5,775C 832.698,780.769 803.198,764.602 786,726.5C 775.928,692.728 783.761,663.894 809.5,640C 841.992,618.014 874.325,618.014 906.5,640C 912.685,645.52 918.185,651.687 923,658.5C 927.983,667.786 931.816,677.453 934.5,687.5 Z"/></g>
<g><path style="opacity:1" fill="#d4fffe" d="M 275.5,624.5 C 275.833,625.167 276.167,625.833 276.5,626.5C 256.194,625.547 235.86,625.214 215.5,625.5C 212.014,624.829 209.347,625.829 207.5,628.5C 207.5,627.5 207.5,626.5 207.5,625.5C 230.092,624.511 252.758,624.178 275.5,624.5 Z"/></g>
<g><path style="opacity:1" fill="#cdfbf8" d="M 471.5,655.5 C 471.819,645.584 471.486,635.75 470.5,626C 435.168,625.5 399.835,625.333 364.5,625.5C 364.47,624.503 364.97,623.836 366,623.5C 401.137,624.324 436.304,624.824 471.5,625C 472.829,635.265 472.829,645.431 471.5,655.5 Z"/></g>
<g><path style="opacity:1" fill="#d6fefe" d="M 1009.5,626.5 C 995.908,625.353 982.242,625.186 968.5,626C 968,626.5 967.5,627 967,627.5C 966.216,633.988 965.383,640.322 964.5,646.5C 964.363,639.786 964.863,633.12 966,626.5C 966.5,626 967,625.5 967.5,625C 981.212,624.816 994.878,624.316 1008.5,623.5C 1009.39,624.325 1009.72,625.325 1009.5,626.5 Z"/></g>
<g><path style="opacity:1" fill="#d4fefe" d="M 1153.5,625.5 C 1159.32,624.834 1165.32,624.5 1171.5,624.5C 1177.87,624.504 1183.87,625.171 1189.5,626.5C 1177.55,625.541 1165.55,625.207 1153.5,625.5 Z"/></g>
<g><path style="opacity:1" fill="#39c99c" d="M 1009.5,626.5 C 1010.34,626.842 1010.67,627.508 1010.5,628.5C 996.968,626.447 983.301,625.947 969.5,627C 967.633,638.949 965.633,650.782 963.5,662.5C 963.687,657.155 964.02,651.822 964.5,646.5C 965.383,640.322 966.216,633.988 967,627.5C 967.5,627 968,626.5 968.5,626C 982.242,625.186 995.908,625.353 1009.5,626.5 Z"/></g>
<g><path style="opacity:1" fill="#00d096" d="M 366.5,629.5 C 398.833,629.5 431.167,629.5 463.5,629.5C 463.5,631.5 463.5,633.5 463.5,635.5C 431.5,635.5 399.5,635.5 367.5,635.5C 367.737,634.209 367.404,633.209 366.5,632.5C 366.5,631.5 366.5,630.5 366.5,629.5 Z"/></g>
<g><path style="opacity:1" fill="#05cf95" d="M 687.5,625.5 C 697.552,625.71 707.218,627.71 716.5,631.5C 751.018,648.52 765.852,676.187 761,714.5C 752.559,749.11 730.726,768.777 695.5,773.5C 676.83,773.667 658.164,773.5 639.5,773C 637.059,772.964 635.059,772.131 633.5,770.5C 633.005,722.905 633.505,675.238 635,627.5C 652.598,626.84 670.098,626.173 687.5,625.5 Z"/></g>
<g><path style="opacity:1" fill="#00d095" d="M 465.5,658.5 C 444.164,658.333 422.831,658.5 401.5,659C 401.418,667.683 401.418,676.516 401.5,685.5C 420.001,684.89 438.334,685.557 456.5,687.5C 456.5,695.833 456.5,704.167 456.5,712.5C 456.5,713.167 456.167,713.5 455.5,713.5C 438.181,712.455 420.847,712.288 403.5,713C 401.777,713.523 400.444,714.523 399.5,716C 401.074,723.854 402.074,731.687 402.5,739.5C 402.5,740.167 402.833,740.5 403.5,740.5C 426.393,741.031 449.393,741.864 472.5,743C 473.485,752.417 473.818,761.917 473.5,771.5C 473.5,771.833 473.5,772.167 473.5,772.5C 473.167,772.5 472.833,772.5 472.5,772.5C 467.221,772.75 466.387,771.084 470,767.5C 470.499,761.843 470.666,756.176 470.5,750.5C 451.787,750.82 433.12,750.487 414.5,749.5C 414.167,749.833 413.833,750.167 413.5,750.5C 430.487,751.499 447.487,751.833 464.5,751.5C 464.807,757.093 464.473,762.593 463.5,768C 431.502,768.5 399.502,768.667 367.5,768.5C 367.5,725.167 367.5,681.833 367.5,638.5C 399.74,638.171 431.907,638.504 464,639.5C 464.5,638 465,636.5 465.5,635C 464.264,633.144 464.264,631.311 465.5,629.5C 432.505,628.667 399.505,628.167 366.5,628C 366.833,627.667 367.167,627.333 367.5,627C 401.863,626.187 436.196,626.354 470.5,627.5C 470.76,637.872 470.427,648.206 469.5,658.5C 468.167,658.5 466.833,658.5 465.5,658.5 Z"/></g>
<g><path style="opacity:1" fill="#d9fefe" d="M 363.5,627.5 C 363.333,675.834 363.5,724.168 364,772.5C 364.5,773 365,773.5 365.5,774C 401.002,774.831 436.336,774.664 471.5,773.5C 472.167,773.5 472.5,773.167 472.5,772.5C 472.833,772.5 473.167,772.5 473.5,772.5C 473.586,773.496 473.252,774.329 472.5,775C 435.762,775.826 399.095,775.66 362.5,774.5C 362.5,727.833 362.5,681.167 362.5,634.5C 362.198,631.941 362.532,629.607 363.5,627.5 Z"/></g>
<g><path style="opacity:1" fill="#05cf95" d="M 215.5,625.5 C 235.86,625.214 256.194,625.547 276.5,626.5C 313.931,635.939 334.598,659.939 338.5,698.5C 337.568,729.562 323.568,752.395 296.5,767C 288.596,770.872 280.262,773.038 271.5,773.5C 251.133,773.798 230.8,773.465 210.5,772.5C 210.843,770.517 210.176,769.183 208.5,768.5C 209.202,721.076 209.869,673.743 210.5,626.5C 212.415,626.784 214.081,626.451 215.5,625.5 Z"/></g>
<g><path style="opacity:1" fill="#41cfa9" d="M 215.5,625.5 C 214.081,626.451 212.415,626.784 210.5,626.5C 209.869,673.743 209.202,721.076 208.5,768.5C 208.5,770.167 208.5,771.833 208.5,773.5C 208.167,773.5 207.833,773.5 207.5,773.5C 207.5,725.167 207.5,676.833 207.5,628.5C 209.347,625.829 212.014,624.829 215.5,625.5 Z"/></g>
<g><path style="opacity:1" fill="#fef4fe" d="M 362.5,634.5 C 362.5,681.167 362.5,727.833 362.5,774.5C 362.414,775.496 362.748,776.329 363.5,777C 367.818,777.594 368.318,779.094 365,781.5C 362.894,779.623 361.561,777.29 361,774.5C 360.833,751.167 360.667,727.833 360.5,704.5C 360.5,680.824 361.167,657.49 362.5,634.5 Z"/></g>
<g><path style="opacity:1" fill="#25c194" d="M 363.5,627.5 C 363.833,627.5 364.167,627.5 364.5,627.5C 364.5,628.167 364.5,628.833 364.5,629.5C 364.168,677.003 364.501,724.336 365.5,771.5C 367.203,770.34 367.869,771.007 367.5,773.5C 402.167,773.5 436.833,773.5 471.5,773.5C 436.336,774.664 401.002,774.831 365.5,774C 365,773.5 364.5,773 364,772.5C 363.5,724.168 363.333,675.834 363.5,627.5 Z"/></g>
<g><path style="opacity:1" fill="#00d996" d="M 364.5,629.5 C 365.167,629.5 365.833,629.5 366.5,629.5C 366.5,630.5 366.5,631.5 366.5,632.5C 366.823,678.876 366.49,725.209 365.5,771.5C 364.501,724.336 364.168,677.003 364.5,629.5 Z"/></g>
<g><path style="opacity:1" fill="#cefefe" d="M 607.5,628.5 C 606.733,627.828 606.066,626.995 605.5,626C 570.5,625.333 535.5,625.333 500.5,626C 499.874,626.75 499.374,627.584 499,628.5C 498.172,676.874 498.338,725.208 499.5,773.5C 534.827,774.5 570.16,774.833 605.5,774.5C 606.167,774.5 606.833,774.5 607.5,774.5C 607.5,774.833 607.5,775.167 607.5,775.5C 571.161,775.833 534.827,775.5 498.5,774.5C 497.838,749.708 497.505,724.875 497.5,700C 497.505,675.125 497.838,650.292 498.5,625.5C 534.495,624.333 570.495,624.167 606.5,625C 607.337,626.011 607.67,627.178 607.5,628.5 Z"/></g>
<g><path style="opacity:1" fill="#2ac396" d="M 607.5,628.5 C 607.5,637.833 607.5,647.167 607.5,656.5C 606.373,657.122 605.373,657.955 604.5,659C 582.169,659.5 559.836,659.667 537.5,659.5C 558.996,658.668 580.663,658.168 602.5,658C 603.667,657.5 604.5,656.667 605,655.5C 605.755,645.799 605.588,636.132 604.5,626.5C 570.165,626.333 535.832,626.5 501.5,627C 500.205,630.786 500.205,634.62 501.5,638.5C 503.017,637.089 504.351,637.256 505.5,639C 503.866,639.494 502.199,639.66 500.5,639.5C 500.333,683.835 500.5,728.168 501,772.5C 535.931,773.163 570.764,773.83 605.5,774.5C 570.16,774.833 534.827,774.5 499.5,773.5C 498.338,725.208 498.172,676.874 499,628.5C 499.374,627.584 499.874,626.75 500.5,626C 535.5,625.333 570.5,625.333 605.5,626C 606.066,626.995 606.733,627.828 607.5,628.5 Z"/></g>
<g><path style="opacity:1" fill="#02cf95" d="M 537.5,659.5 C 537.5,667.833 537.5,676.167 537.5,684.5C 537.461,685.756 537.961,686.756 539,687.5C 556.458,686.199 573.958,686.199 591.5,687.5C 591.5,696.167 591.5,704.833 591.5,713.5C 590.833,713.5 590.167,713.5 589.5,713.5C 572.632,713.812 555.798,713.479 539,712.5C 537.97,712.836 537.47,713.503 537.5,714.5C 537.5,723.167 537.5,731.833 537.5,740.5C 537.47,741.497 537.97,742.164 539,742.5C 561.8,741.515 584.634,741.182 607.5,741.5C 608.117,741.611 608.617,741.944 609,742.5C 609.667,752.167 609.667,761.833 609,771.5C 607.961,772.244 607.461,773.244 607.5,774.5C 606.833,774.5 606.167,774.5 605.5,774.5C 570.764,773.83 535.931,773.163 501,772.5C 500.5,728.168 500.333,683.835 500.5,639.5C 502.199,639.66 503.866,639.494 505.5,639C 504.351,637.256 503.017,637.089 501.5,638.5C 500.205,634.62 500.205,630.786 501.5,627C 535.832,626.5 570.165,626.333 604.5,626.5C 605.588,636.132 605.755,645.799 605,655.5C 604.5,656.667 603.667,657.5 602.5,658C 580.663,658.168 558.996,658.668 537.5,659.5 Z"/></g>
<g><path style="opacity:1" fill="#e2fefe" d="M 631.5,625.5 C 653.091,624.512 674.758,624.178 696.5,624.5C 701.862,626.954 707.196,626.954 712.5,624.5C 713.167,624.833 713.833,625.167 714.5,625.5C 712.922,626.298 711.256,626.798 709.5,627C 711.993,628.419 714.326,629.919 716.5,631.5C 707.218,627.71 697.552,625.71 687.5,625.5C 669.497,625.333 651.497,625.5 633.5,626C 632.874,626.75 632.374,627.584 632,628.5C 631.333,676.833 631.333,725.167 632,773.5C 652.424,774.493 672.924,774.827 693.5,774.5C 672.764,775.831 651.931,775.831 631,774.5C 630.833,725.83 630.333,677.163 629.5,628.5C 628.155,627.653 627.155,626.487 626.5,625C 625.5,624.667 624.5,624.333 623.5,624C 626.309,623.688 628.976,624.188 631.5,625.5 Z"/></g>
<g><path style="opacity:1" fill="#41cda1" d="M 687.5,625.5 C 670.098,626.173 652.598,626.84 635,627.5C 633.505,675.238 633.005,722.905 633.5,770.5C 635.059,772.131 637.059,772.964 639.5,773C 658.164,773.5 676.83,773.667 695.5,773.5C 695.158,774.338 694.492,774.672 693.5,774.5C 672.924,774.827 652.424,774.493 632,773.5C 631.333,725.167 631.333,676.833 632,628.5C 632.374,627.584 632.874,626.75 633.5,626C 651.497,625.5 669.497,625.333 687.5,625.5 Z"/></g>
<g><path style="opacity:1" fill="#07cf96" d="M 1122.5,774.5 C 1110.75,774.811 1099.09,774.478 1087.5,773.5C 1086.49,766.042 1085.49,758.709 1084.5,751.5C 1084.47,745.949 1083.81,740.616 1082.5,735.5C 1081.22,722.47 1079.72,709.47 1078,696.5C 1077.67,696.833 1077.33,697.167 1077,697.5C 1069.79,722.6 1062.45,747.6 1055,772.5C 1053.89,774.037 1052.39,774.703 1050.5,774.5C 1041.49,774.666 1032.49,774.5 1023.5,774C 1022.22,772.591 1021.22,771.091 1020.5,769.5C 1013.99,745.795 1007.32,722.128 1000.5,698.5C 999.807,694.238 998.974,693.905 998,697.5C 996.909,706.148 996.076,714.815 995.5,723.5C 993.706,735.772 992.373,748.105 991.5,760.5C 990.175,759.047 989.342,759.381 989,761.5C 988.58,765.191 988.08,768.858 987.5,772.5C 983.818,772.665 980.152,772.499 976.5,772C 978.396,770.935 978.563,770.102 977,769.5C 971.204,770.269 965.371,770.769 959.5,771C 964.864,771.171 970.198,771.671 975.5,772.5C 968.502,773.625 961.502,773.625 954.5,772.5C 954.334,768.154 954.501,763.821 955,759.5C 955.718,760.451 956.551,760.617 957.5,760C 956.453,748.231 956.453,736.398 957.5,724.5C 958.849,703.75 960.849,683.083 963.5,662.5C 965.633,650.782 967.633,638.949 969.5,627C 983.301,625.947 996.968,626.447 1010.5,628.5C 1019.84,658.852 1029.34,689.185 1039,719.5C 1047.48,688.216 1056.81,657.216 1067,626.5C 1080.77,625.178 1094.6,625.178 1108.5,626.5C 1110.06,629.974 1110.9,633.64 1111,637.5C 1115.11,681.215 1119.61,724.882 1124.5,768.5C 1124.64,770.841 1123.97,772.841 1122.5,774.5 Z"/></g>
<g><path style="opacity:1" fill="#2acfa1" d="M 1153.5,625.5 C 1165.55,625.207 1177.55,625.541 1189.5,626.5C 1190.34,626.842 1190.67,627.508 1190.5,628.5C 1189.08,628.291 1187.74,627.791 1186.5,627C 1175.84,626.5 1165.17,626.333 1154.5,626.5C 1154.58,627.93 1154.25,629.264 1153.5,630.5C 1154.33,677.792 1154.83,725.126 1155,772.5C 1166.09,773.487 1177.25,773.821 1188.5,773.5C 1187.08,774.451 1185.41,774.784 1183.5,774.5C 1173.83,774.666 1164.16,774.5 1154.5,774C 1153.31,773.302 1152.31,772.469 1151.5,771.5C 1151.33,723.832 1151.5,676.166 1152,628.5C 1152.51,627.473 1153.01,626.473 1153.5,625.5 Z"/></g>
<g><path style="opacity:1" fill="#03cf95" d="M 1190.5,628.5 C 1191.16,677.178 1190.5,725.512 1188.5,773.5C 1177.25,773.821 1166.09,773.487 1155,772.5C 1154.83,725.126 1154.33,677.792 1153.5,630.5C 1154.25,629.264 1154.58,627.93 1154.5,626.5C 1165.17,626.333 1175.84,626.5 1186.5,627C 1187.74,627.791 1189.08,628.291 1190.5,628.5 Z"/></g>
<g><path style="opacity:1" fill="#fcfefe" d="M 264.5,661.5 C 282.888,663.377 294.388,673.377 299,691.5C 301.268,708.053 296.101,721.553 283.5,732C 272.304,738.14 260.304,740.64 247.5,739.5C 247.5,713.5 247.5,687.5 247.5,661.5C 253.167,661.5 258.833,661.5 264.5,661.5 Z"/></g>
<g><path style="opacity:1" fill="#fcfefe" d="M 690.5,661.5 C 711.245,665.633 722.245,678.299 723.5,699.5C 722.563,722.768 710.563,735.768 687.5,738.5C 682.167,738.5 676.833,738.5 671.5,738.5C 671.5,712.833 671.5,687.167 671.5,661.5C 677.833,661.5 684.167,661.5 690.5,661.5 Z"/></g>
<g><path style="opacity:1" fill="#ccfffb" d="M 465.5,659.5 C 467.167,659.5 468.833,659.5 470.5,659.5C 448.34,660.497 426.006,660.831 403.5,660.5C 403.5,668.167 403.5,675.833 403.5,683.5C 420.89,683.624 438.224,683.457 455.5,683C 456,683.5 456.5,684 457,684.5C 457.824,694.009 457.658,703.343 456.5,712.5C 456.5,704.167 456.5,695.833 456.5,687.5C 456.586,686.504 456.252,685.671 455.5,685C 437.836,684.5 420.17,684.333 402.5,684.5C 402.5,676.167 402.5,667.833 402.5,659.5C 423.5,659.5 444.5,659.5 465.5,659.5 Z"/></g>
<g><path style="opacity:1" fill="#fbfdfe" d="M 850.5,660.5 C 882.844,660.342 897.677,676.342 895,708.5C 887.09,734.486 869.923,743.986 843.5,737C 830.264,730.727 822.764,720.227 821,705.5C 819.362,682.733 829.196,667.733 850.5,660.5 Z"/></g>
<g><path style="opacity:1" fill="#25be93" d="M 246.5,660.5 C 246.5,686.833 246.5,713.167 246.5,739.5C 245.469,740.38 244.802,739.88 244.5,738C 245.154,712.027 245.82,686.193 246.5,660.5 Z"/></g>
<g><path style="opacity:1" fill="#b4feee" d="M 246.5,660.5 C 252.69,660.177 258.69,660.51 264.5,661.5C 258.833,661.5 253.167,661.5 247.5,661.5C 247.5,687.5 247.5,713.5 247.5,739.5C 247.167,739.5 246.833,739.5 246.5,739.5C 246.5,713.167 246.5,686.833 246.5,660.5 Z"/></g>
<g><path style="opacity:1" fill="#25be93" d="M 690.5,660.5 C 683.833,660.5 677.167,660.5 670.5,660.5C 670.5,686.833 670.5,713.167 670.5,739.5C 669.305,739.134 668.639,738.301 668.5,737C 669.797,713.519 669.797,690.019 668.5,666.5C 668.608,662.673 669.442,659.007 671,655.5C 671.483,656.448 671.649,657.448 671.5,658.5C 676.844,658.334 682.177,658.501 687.5,659C 688.737,659.232 689.737,659.732 690.5,660.5 Z"/></g>
<g><path style="opacity:1" fill="#aafef0" d="M 690.5,660.5 C 690.5,660.833 690.5,661.167 690.5,661.5C 684.167,661.5 677.833,661.5 671.5,661.5C 671.5,687.167 671.5,712.833 671.5,738.5C 676.833,738.5 682.167,738.5 687.5,738.5C 682.025,739.489 676.358,739.822 670.5,739.5C 670.5,713.167 670.5,686.833 670.5,660.5C 677.167,660.5 683.833,660.5 690.5,660.5 Z"/></g>
<g><path style="opacity:1" fill="#d3fefe" d="M 607.5,656.5 C 606.766,658.984 605.266,660.984 603,662.5C 601.941,662.37 601.108,661.87 600.5,661C 579.836,660.5 559.169,660.333 538.5,660.5C 538.5,668.167 538.5,675.833 538.5,683.5C 556.532,682.847 574.198,683.514 591.5,685.5C 573.547,684.527 555.547,684.193 537.5,684.5C 537.5,676.167 537.5,667.833 537.5,659.5C 559.836,659.667 582.169,659.5 604.5,659C 605.373,657.955 606.373,657.122 607.5,656.5 Z"/></g>
<g><path style="opacity:1" fill="#2fb992" d="M 465.5,658.5 C 465.5,658.833 465.5,659.167 465.5,659.5C 444.5,659.5 423.5,659.5 402.5,659.5C 402.5,667.833 402.5,676.167 402.5,684.5C 420.17,684.333 437.836,684.5 455.5,685C 456.252,685.671 456.586,686.504 456.5,687.5C 438.334,685.557 420.001,684.89 401.5,685.5C 401.418,676.516 401.418,667.683 401.5,659C 422.831,658.5 444.164,658.333 465.5,658.5 Z"/></g>
<g><path style="opacity:1" fill="#1fc192" d="M 537.5,684.5 C 555.547,684.193 573.547,684.527 591.5,685.5C 591.5,686.167 591.5,686.833 591.5,687.5C 573.958,686.199 556.458,686.199 539,687.5C 537.961,686.756 537.461,685.756 537.5,684.5 Z"/></g>
<g><path style="opacity:1" fill="#d5fdfb" d="M 934.5,687.5 C 935.655,694.655 935.822,701.988 935,709.5C 935.083,713.311 934.25,716.645 932.5,719.5C 934.147,708.922 934.814,698.255 934.5,687.5 Z"/></g>
<g><path style="opacity:1" fill="#d0f9f2" d="M 1000.5,698.5 C 998.702,704.421 997.869,710.754 998,717.5C 997.155,719.611 996.322,721.611 995.5,723.5C 996.076,714.815 996.909,706.148 998,697.5C 998.974,693.905 999.807,694.238 1000.5,698.5 Z"/></g>
<g><path style="opacity:1" fill="#25c194" d="M 455.5,713.5 C 455.158,714.338 454.492,714.672 453.5,714.5C 436.5,714.5 419.5,714.5 402.5,714.5C 402.5,722.833 402.5,731.167 402.5,739.5C 402.074,731.687 401.074,723.854 399.5,716C 400.444,714.523 401.777,713.523 403.5,713C 420.847,712.288 438.181,712.455 455.5,713.5 Z"/></g>
<g><path style="opacity:1" fill="#31b892" d="M 589.5,713.5 C 572.341,714.497 555.008,714.83 537.5,714.5C 537.47,713.503 537.97,712.836 539,712.5C 555.798,713.479 572.632,713.812 589.5,713.5 Z"/></g>
<g><path style="opacity:1" fill="#e2fffd" d="M 589.5,713.5 C 590.167,713.5 590.833,713.5 591.5,713.5C 590.411,715.117 588.744,715.95 586.5,716C 571.837,716.5 557.17,716.667 542.5,716.5C 542.5,723.833 542.5,731.167 542.5,738.5C 564.833,738.5 587.167,738.5 609.5,738.5C 610.603,750.133 610.769,761.8 610,773.5C 609.583,774.756 608.75,775.423 607.5,775.5C 607.5,775.167 607.5,774.833 607.5,774.5C 607.461,773.244 607.961,772.244 609,771.5C 609.667,761.833 609.667,752.167 609,742.5C 608.617,741.944 608.117,741.611 607.5,741.5C 584.339,740.502 561.006,740.169 537.5,740.5C 537.5,731.833 537.5,723.167 537.5,714.5C 555.008,714.83 572.341,714.497 589.5,713.5 Z"/></g>
<g><path style="opacity:1" fill="#fef2fe" d="M 538.5,717.5 C 539.821,720.598 540.488,724.098 540.5,728C 540.167,731.5 539.833,735 539.5,738.5C 538.503,731.532 538.17,724.532 538.5,717.5 Z"/></g>
<g><path style="opacity:1" fill="#cbfefd" d="M 453.5,714.5 C 437.008,715.497 420.342,715.83 403.5,715.5C 403.5,723.5 403.5,731.5 403.5,739.5C 426.836,739.333 450.169,739.5 473.5,740C 474.252,740.671 474.586,741.504 474.5,742.5C 473.527,742.013 472.527,741.513 471.5,741C 448.836,740.5 426.169,740.333 403.5,740.5C 402.833,740.5 402.5,740.167 402.5,739.5C 402.5,731.167 402.5,722.833 402.5,714.5C 419.5,714.5 436.5,714.5 453.5,714.5 Z"/></g>
<g><path style="opacity:1" fill="#41c09b" d="M 403.5,740.5 C 426.169,740.333 448.836,740.5 471.5,741C 472.527,741.513 473.527,742.013 474.5,742.5C 474.827,752.348 474.494,762.014 473.5,771.5C 473.818,761.917 473.485,752.417 472.5,743C 449.393,741.864 426.393,741.031 403.5,740.5 Z"/></g>
<g><path style="opacity:1" fill="#30b791" d="M 537.5,740.5 C 561.006,740.169 584.339,740.502 607.5,741.5C 584.634,741.182 561.8,741.515 539,742.5C 537.97,742.164 537.47,741.497 537.5,740.5 Z"/></g>
<g><path style="opacity:1" fill="#b3f6e9" d="M 1082.5,735.5 C 1083.81,740.616 1084.47,745.949 1084.5,751.5C 1083.04,746.402 1082.38,741.069 1082.5,735.5 Z"/></g>
<g><path style="opacity:1" fill="#09cc95" d="M 364.5,625.5 C 399.835,625.333 435.168,625.5 470.5,626C 471.486,635.75 471.819,645.584 471.5,655.5C 471.567,656.959 471.234,658.292 470.5,659.5C 468.833,659.5 467.167,659.5 465.5,659.5C 465.5,659.167 465.5,658.833 465.5,658.5C 466.833,658.5 468.167,658.5 469.5,658.5C 470.427,648.206 470.76,637.872 470.5,627.5C 436.196,626.354 401.863,626.187 367.5,627C 367.167,627.333 366.833,627.667 366.5,628C 399.505,628.167 432.505,628.667 465.5,629.5C 464.264,631.311 464.264,633.144 465.5,635C 465,636.5 464.5,638 464,639.5C 431.907,638.504 399.74,638.171 367.5,638.5C 367.5,681.833 367.5,725.167 367.5,768.5C 399.502,768.667 431.502,768.5 463.5,768C 464.473,762.593 464.807,757.093 464.5,751.5C 447.487,751.833 430.487,751.499 413.5,750.5C 413.833,750.167 414.167,749.833 414.5,749.5C 433.12,750.487 451.787,750.82 470.5,750.5C 470.666,756.176 470.499,761.843 470,767.5C 466.387,771.084 467.221,772.75 472.5,772.5C 472.5,773.167 472.167,773.5 471.5,773.5C 436.833,773.5 402.167,773.5 367.5,773.5C 367.869,771.007 367.203,770.34 365.5,771.5C 366.49,725.209 366.823,678.876 366.5,632.5C 367.404,633.209 367.737,634.209 367.5,635.5C 399.5,635.5 431.5,635.5 463.5,635.5C 463.5,633.5 463.5,631.5 463.5,629.5C 431.167,629.5 398.833,629.5 366.5,629.5C 365.833,629.5 365.167,629.5 364.5,629.5C 364.5,628.833 364.5,628.167 364.5,627.5C 364.5,626.833 364.5,626.167 364.5,625.5 Z"/></g>
<g><path style="opacity:1" fill="#25c998" d="M 957.5,724.5 C 956.453,736.398 956.453,748.231 957.5,760C 956.551,760.617 955.718,760.451 955,759.5C 954.501,763.821 954.334,768.154 954.5,772.5C 961.502,773.625 968.502,773.625 975.5,772.5C 970.198,771.671 964.864,771.171 959.5,771C 965.371,770.769 971.204,770.269 977,769.5C 978.563,770.102 978.396,770.935 976.5,772C 980.152,772.499 983.818,772.665 987.5,772.5C 988.08,768.858 988.58,765.191 989,761.5C 989.342,759.381 990.175,759.047 991.5,760.5C 990.833,764.833 990.167,769.167 989.5,773.5C 977.532,774.792 965.532,774.792 953.5,773.5C 952.652,771.591 952.318,769.591 952.5,767.5C 954.214,753.169 955.881,738.836 957.5,724.5 Z"/></g>
<g><path style="opacity:1" fill="#2cbb92" d="M 208.5,768.5 C 210.176,769.183 210.843,770.517 210.5,772.5C 230.8,773.465 251.133,773.798 271.5,773.5C 271.5,773.833 271.5,774.167 271.5,774.5C 250.454,774.811 229.454,774.477 208.5,773.5C 208.5,771.833 208.5,770.167 208.5,768.5 Z"/></g>
<g><path style="opacity:1" fill="#ccfefe" d="M 207.5,773.5 C 207.833,773.5 208.167,773.5 208.5,773.5C 229.454,774.477 250.454,774.811 271.5,774.5C 261.005,775.167 250.339,775.5 239.5,775.5C 228.478,775.499 217.812,774.832 207.5,773.5 Z"/></g>
<g><path style="opacity:1" fill="#cdfefd" d="M 952.5,767.5 C 952.318,769.591 952.652,771.591 953.5,773.5C 965.532,774.792 977.532,774.792 989.5,773.5C 989.389,774.117 989.056,774.617 988.5,775C 976.486,775.833 964.486,775.666 952.5,774.5C 951.234,772.028 951.234,769.694 952.5,767.5 Z"/></g>
<g><path style="opacity:1" fill="#cafefd" d="M 1020.5,769.5 C 1021.22,771.091 1022.22,772.591 1023.5,774C 1032.49,774.5 1041.49,774.666 1050.5,774.5C 1040.99,775.823 1031.33,775.823 1021.5,774.5C 1020.69,772.929 1020.36,771.262 1020.5,769.5 Z"/></g>
<g><path style="opacity:1" fill="#ccfffe" d="M 1087.5,773.5 C 1099.09,774.478 1110.75,774.811 1122.5,774.5C 1116.84,775.166 1111.01,775.499 1105,775.5C 1098.79,775.496 1092.96,774.829 1087.5,773.5 Z"/></g>
<g><path style="opacity:1" fill="#ccfefd" d="M 1151.5,771.5 C 1152.31,772.469 1153.31,773.302 1154.5,774C 1164.16,774.5 1173.83,774.666 1183.5,774.5C 1173.01,775.494 1162.35,775.828 1151.5,775.5C 1151.5,774.167 1151.5,772.833 1151.5,771.5 Z"/></g>
</svg>
