<svg width="304" height="49" viewBox="0 0 304 49" fill="none" xmlns="http://www.w3.org/2000/svg">
<path d="M2.14925 47.2624C1.27013 47.2624 0.830566 46.8228 0.830566 45.9437V2.26237C0.830566 1.38325 1.27013 0.943693 2.14925 0.943693H17.9734C22.435 0.943693 26.5229 1.95468 30.2372 3.97666C33.9514 5.99864 36.8855 8.77886 39.0394 12.3173C41.2152 15.8558 42.3031 19.7789 42.3031 24.0865C42.3031 28.3942 41.2262 32.3173 39.0723 35.8558C36.9185 39.3942 33.9844 42.1854 30.2701 44.2294C26.5778 46.2514 22.5119 47.2624 18.0723 47.2624H2.14925ZM18.435 37.0096C20.8965 37.0096 23.1163 36.4602 25.0943 35.3613C27.0723 34.2624 28.6218 32.7349 29.7427 30.7789C30.8855 28.8228 31.4569 26.592 31.4569 24.0865C31.4569 21.625 30.8855 19.4162 29.7427 17.4602C28.6218 15.4822 27.0613 13.9437 25.0613 12.8448C23.0833 11.7459 20.8525 11.1964 18.369 11.1964H11.5119V37.0096H18.435Z" fill="white"/>
<path d="M83.6439 45.9437C83.6439 46.8228 83.2043 47.2624 82.3252 47.2624H51.0724C50.1933 47.2624 49.7538 46.8228 49.7538 45.9437V2.26237C49.7538 1.38325 50.1933 0.943693 51.0724 0.943693H81.8637C82.7428 0.943693 83.1823 1.38325 83.1823 2.26237V9.35029C83.1823 10.2294 82.7428 10.669 81.8637 10.669H60.4351V19.0096H76.9186C77.7977 19.0096 78.2373 19.4492 78.2373 20.3283V26.8558C78.2373 27.7349 77.7977 28.1745 76.9186 28.1745H60.4351V37.5371H82.3252C83.2043 37.5371 83.6439 37.9767 83.6439 38.8558V45.9437Z" fill="white"/>
<path d="M125.022 45.9437C125.022 46.8228 124.582 47.2624 123.703 47.2624H92.4506C91.5715 47.2624 91.1319 46.8228 91.1319 45.9437V2.26237C91.1319 1.38325 91.5715 0.943693 92.4506 0.943693H123.242C124.121 0.943693 124.56 1.38325 124.56 2.26237V9.35029C124.56 10.2294 124.121 10.669 123.242 10.669H101.813V19.0096H118.297C119.176 19.0096 119.615 19.4492 119.615 20.3283V26.8558C119.615 27.7349 119.176 28.1745 118.297 28.1745H101.813V37.5371H123.703C124.582 37.5371 125.022 37.9767 125.022 38.8558V45.9437Z" fill="white"/>
<path d="M133.829 47.2624C132.95 47.2624 132.51 46.8228 132.51 45.9437V2.26237C132.51 1.38325 132.95 0.943693 133.829 0.943693H149.653C154.114 0.943693 158.202 1.95468 161.917 3.97666C165.631 5.99864 168.565 8.77886 170.719 12.3173C172.895 15.8558 173.983 19.7789 173.983 24.0865C173.983 28.3942 172.906 32.3173 170.752 35.8558C168.598 39.3942 165.664 42.1854 161.95 44.2294C158.257 46.2514 154.191 47.2624 149.752 47.2624H133.829ZM150.114 37.0096C152.576 37.0096 154.796 36.4602 156.774 35.3613C158.752 34.2624 160.301 32.7349 161.422 30.7789C162.565 28.8228 163.136 26.592 163.136 24.0865C163.136 21.625 162.565 19.4162 161.422 17.4602C160.301 15.4822 158.741 13.9437 156.741 12.8448C154.763 11.7459 152.532 11.1964 150.048 11.1964H143.191V37.0096H150.114Z" fill="white"/>
<path d="M202.994 48.0865C198.554 48.0865 194.499 47.0206 190.829 44.8887C187.159 42.7349 184.257 39.8228 182.126 36.1525C180.016 32.4602 178.961 28.4162 178.961 24.0206C178.961 19.625 180.016 15.603 182.126 11.9547C184.235 8.28435 187.126 5.39424 190.796 3.28435C194.466 1.15248 198.532 0.0865479 202.994 0.0865479C207.433 0.0865479 211.488 1.15248 215.159 3.28435C218.829 5.39424 221.719 8.28435 223.829 11.9547C225.961 15.603 227.027 19.625 227.027 24.0206C227.027 28.4162 225.961 32.4602 223.829 36.1525C221.719 39.8228 218.829 42.7349 215.159 44.8887C211.488 47.0206 207.433 48.0865 202.994 48.0865ZM202.994 37.8338C205.345 37.8338 207.532 37.2294 209.554 36.0206C211.576 34.8118 213.18 33.1525 214.367 31.0426C215.576 28.9327 216.18 26.603 216.18 24.0536C216.18 21.5261 215.576 19.2184 214.367 17.1305C213.158 15.0206 211.543 13.3613 209.521 12.1525C207.499 10.9437 205.323 10.3393 202.994 10.3393C200.642 10.3393 198.455 10.9437 196.433 12.1525C194.411 13.3613 192.796 15.0206 191.587 17.1305C190.4 19.2184 189.807 21.5261 189.807 24.0536C189.807 26.603 190.411 28.9327 191.62 31.0426C192.829 33.1305 194.444 34.7898 196.466 36.0206C198.488 37.2294 200.664 37.8338 202.994 37.8338Z" fill="white"/>
<path d="M241.53 46.0096C241.42 46.8448 240.958 47.2624 240.145 47.2624H232.002C231.563 47.2624 231.233 47.1415 231.013 46.8997C230.793 46.658 230.705 46.3173 230.749 45.8778L236.255 2.16347C236.299 1.76787 236.442 1.47117 236.684 1.27336C236.947 1.05358 237.277 0.943693 237.673 0.943693H247.332C248.101 0.943693 248.585 1.31732 248.782 2.06457L257.881 32.4272L266.947 2.06457C267.145 1.31732 267.629 0.943693 268.398 0.943693H278.057C278.453 0.943693 278.771 1.05358 279.013 1.27336C279.277 1.47117 279.431 1.76787 279.475 2.16347L285.013 45.9107C285.057 46.3503 284.969 46.6909 284.749 46.9327C284.53 47.1745 284.2 47.2953 283.76 47.2953H275.585C274.771 47.2953 274.31 46.8778 274.2 46.0426L271.233 18.0865L262.892 46.1415C262.695 46.8887 262.211 47.2624 261.442 47.2624H254.42C253.651 47.2624 253.167 46.8887 252.969 46.1415L244.629 18.0865L241.53 46.0096Z" fill="white"/>
<path d="M303.434 45.9437C303.434 46.8228 302.995 47.2624 302.116 47.2624H294.072C293.193 47.2624 292.753 46.8228 292.753 45.9437V2.26237C292.753 1.38325 293.193 0.943693 294.072 0.943693H302.116C302.995 0.943693 303.434 1.38325 303.434 2.26237V45.9437Z" fill="white"/>
</svg>
