<svg width="156" height="26" viewBox="0 0 156 26" fill="none" xmlns="http://www.w3.org/2000/svg">
<path d="M1.44304 25C0.961319 25 0.720459 24.7592 0.720459 24.2774V1.55055C0.720459 1.06883 0.961319 0.827974 1.44304 0.827974H10.0452C12.3964 0.827974 14.547 1.35557 16.4968 2.41077C18.4581 3.4545 20.0065 4.89966 21.142 6.74625C22.2774 8.58138 22.8452 10.6287 22.8452 12.8882C22.8452 15.1592 22.2774 17.2179 21.142 19.0645C20.0179 20.9111 18.481 22.362 16.5312 23.4172C14.5814 24.4724 12.4366 25 10.0968 25H1.44304ZM10.3377 18.1871C11.3699 18.1871 12.2875 17.9692 13.0904 17.5333C13.8932 17.0975 14.5183 16.4782 14.9656 15.6753C15.4129 14.8724 15.6366 13.9434 15.6366 12.8882C15.6366 11.8559 15.4129 10.9441 14.9656 10.1527C14.5183 9.34984 13.8932 8.73048 13.0904 8.29464C12.2875 7.8588 11.3699 7.64088 10.3377 7.64088H7.82584V18.1871H10.3377Z" fill="white"/>
<path d="M43.4521 24.2774C43.4521 24.5068 43.389 24.6846 43.2629 24.8108C43.1367 24.9369 42.9589 25 42.7295 25H26.1618C25.6801 25 25.4392 24.7592 25.4392 24.2774V1.55055C25.4392 1.06883 25.6801 0.827974 26.1618 0.827974H42.4715C42.7009 0.827974 42.8786 0.891057 43.0048 1.01722C43.131 1.14339 43.194 1.32116 43.194 1.55055V6.50539C43.194 6.97564 42.9532 7.21077 42.4715 7.21077H32.5446V9.87744H40.0285C40.2578 9.87744 40.4356 9.94052 40.5618 10.0667C40.688 10.1928 40.751 10.3706 40.751 10.6V15.1247C40.751 15.6065 40.5102 15.8473 40.0285 15.8473H32.5446V18.6172H42.7295C43.2113 18.6172 43.4521 18.8523 43.4521 19.3226V24.2774Z" fill="white"/>
<path d="M64.0459 24.2774C64.0459 24.5068 63.9828 24.6846 63.8566 24.8108C63.7305 24.9369 63.5527 25 63.3233 25H46.7555C46.2738 25 46.033 24.7592 46.033 24.2774V1.55055C46.033 1.06883 46.2738 0.827974 46.7555 0.827974H63.0652C63.2946 0.827974 63.4724 0.891057 63.5986 1.01722C63.7247 1.14339 63.7878 1.32116 63.7878 1.55055V6.50539C63.7878 6.97564 63.5469 7.21077 63.0652 7.21077H53.1383V9.87744H60.6222C60.8516 9.87744 61.0294 9.94052 61.1555 10.0667C61.2817 10.1928 61.3448 10.3706 61.3448 10.6V15.1247C61.3448 15.6065 61.1039 15.8473 60.6222 15.8473H53.1383V18.6172H63.3233C63.805 18.6172 64.0459 18.8523 64.0459 19.3226V24.2774Z" fill="white"/>
<path d="M67.3493 25C66.8676 25 66.6267 24.7592 66.6267 24.2774V1.55055C66.6267 1.06883 66.8676 0.827974 67.3493 0.827974H75.9514C78.3027 0.827974 80.4532 1.35557 82.4031 2.41077C84.3643 3.4545 85.9127 4.89966 87.0482 6.74625C88.1837 8.58138 88.7514 10.6287 88.7514 12.8882C88.7514 15.1592 88.1837 17.2179 87.0482 19.0645C85.9242 20.9111 84.3873 22.362 82.4375 23.4172C80.4876 24.4724 78.3428 25 76.0031 25H67.3493ZM76.2439 18.1871C77.2762 18.1871 78.1937 17.9692 78.9966 17.5333C79.7995 17.0975 80.4246 16.4782 80.8719 15.6753C81.3192 14.8724 81.5428 13.9434 81.5428 12.8882C81.5428 11.8559 81.3192 10.9441 80.8719 10.1527C80.4246 9.34984 79.7995 8.73048 78.9966 8.29464C78.1937 7.8588 77.2762 7.64088 76.2439 7.64088H73.7321V18.1871H76.2439Z" fill="white"/>
<path d="M103.096 25.4473C100.756 25.4473 98.6229 24.8853 96.696 23.7613C94.7691 22.6258 93.2494 21.1004 92.1369 19.185C91.0358 17.2581 90.4852 15.1477 90.4852 12.8538C90.4852 10.5599 91.0358 8.46095 92.1369 6.55701C93.2494 4.64159 94.7691 3.12761 96.696 2.01507C98.6229 0.902525 100.756 0.346252 103.096 0.346252C105.424 0.346252 107.552 0.902525 109.479 2.01507C111.406 3.12761 112.92 4.64159 114.021 6.55701C115.133 8.46095 115.69 10.5599 115.69 12.8538C115.69 15.1477 115.133 17.2581 114.021 19.185C112.92 21.1004 111.406 22.6258 109.479 23.7613C107.552 24.8853 105.424 25.4473 103.096 25.4473ZM103.096 18.6344C104.037 18.6344 104.92 18.3821 105.745 17.8774C106.583 17.3728 107.248 16.6789 107.741 15.7957C108.234 14.9126 108.481 13.9377 108.481 12.871C108.481 11.8158 108.229 10.8523 107.724 9.98066C107.231 9.10898 106.571 8.42081 105.745 7.91615C104.92 7.41149 104.037 7.15916 103.096 7.15916C102.155 7.15916 101.267 7.41149 100.429 7.91615C99.6035 8.42081 98.9383 9.10898 98.4336 9.98066C97.9404 10.8523 97.6938 11.8158 97.6938 12.871C97.6938 13.9377 97.9462 14.9126 98.4508 15.7957C98.9555 16.6789 99.6207 17.3728 100.447 17.8774C101.272 18.3821 102.155 18.6344 103.096 18.6344Z" fill="white"/>
<path d="M123.87 24.3118C123.813 24.7706 123.561 25 123.113 25H117.384C117.144 25 116.96 24.9369 116.834 24.8108C116.719 24.6731 116.679 24.4839 116.713 24.243L119.741 1.49894C119.764 1.28102 119.845 1.11471 119.982 1.00002C120.12 0.885322 120.298 0.827974 120.516 0.827974H127.156C127.581 0.827974 127.845 1.03443 127.948 1.44733L131.217 15.1936L134.486 1.44733C134.589 1.03443 134.847 0.827974 135.26 0.827974H141.935C142.153 0.827974 142.331 0.885322 142.468 1.00002C142.606 1.11471 142.686 1.28102 142.709 1.49894L145.754 24.2602C145.812 24.7649 145.582 25.0172 145.066 25.0172H139.32C138.861 25.0172 138.609 24.7878 138.563 24.3291L137.273 12.2516L134.52 24.3807C134.417 24.7936 134.159 25 133.746 25H128.791C128.367 25 128.103 24.7936 127.999 24.3807L125.247 12.2516L123.87 24.3118Z" fill="white"/>
<path d="M155.513 24.2774C155.513 24.7592 155.272 25 154.791 25H149.131C148.649 25 148.408 24.7592 148.408 24.2774V1.55055C148.408 1.06883 148.649 0.827974 149.131 0.827974H154.791C155.272 0.827974 155.513 1.06883 155.513 1.55055V24.2774Z" fill="white"/>
</svg>
