<svg width="15" height="14" viewBox="0 0 15 14" fill="none" xmlns="http://www.w3.org/2000/svg">
<g id="ri:instagram-fill">
<path id="Vector" d="M8.2548 1.26611C8.89991 1.26783 9.22734 1.27127 9.51004 1.2793L9.62128 1.28332C9.74973 1.2879 9.87646 1.29364 10.0296 1.30052C10.6397 1.32919 11.056 1.42553 11.4213 1.56717C11.7998 1.71282 12.1186 1.91008 12.4374 2.22833C12.7291 2.51489 12.9548 2.86167 13.0986 3.24445C13.2402 3.60973 13.3365 4.02604 13.3652 4.63675C13.3721 4.78928 13.3778 4.91601 13.3824 5.04503L13.3859 5.15628C13.3945 5.4384 13.3979 5.76583 13.3991 6.41094L13.3996 6.83872V7.58992C13.401 8.00818 13.3966 8.42645 13.3864 8.84459L13.383 8.95583C13.3784 9.08486 13.3727 9.21159 13.3658 9.36412C13.3371 9.97482 13.2396 10.3906 13.0986 10.7564C12.9548 11.1392 12.7291 11.486 12.4374 11.7725C12.1508 12.0642 11.8041 12.2899 11.4213 12.4337C11.056 12.5753 10.6397 12.6717 10.0296 12.7003L9.62128 12.7175L9.51004 12.721C9.22734 12.729 8.89991 12.733 8.2548 12.7342L7.82702 12.7348H7.07639C6.65794 12.7362 6.23948 12.7318 5.82115 12.7216L5.70991 12.7181C5.57378 12.713 5.43768 12.707 5.30162 12.7003C4.69149 12.6717 4.27518 12.5753 3.90933 12.4337C3.52675 12.2898 3.18018 12.0642 2.89378 11.7725C2.60187 11.486 2.37604 11.1392 2.23204 10.7564C2.0904 10.3911 1.99407 9.97482 1.9654 9.36412L1.94819 8.95583L1.94533 8.84459C1.93476 8.42645 1.92998 8.00819 1.93099 7.58992V6.41094C1.9294 5.99268 1.93361 5.57442 1.94361 5.15628L1.94762 5.04503C1.95221 4.91601 1.95794 4.78928 1.96482 4.63675C1.99349 4.02604 2.08983 3.6103 2.23147 3.24445C2.3758 2.86151 2.60203 2.51472 2.89436 2.22833C3.18059 1.93677 3.52696 1.71114 3.90933 1.56717C4.27518 1.42553 4.69092 1.32919 5.30162 1.30052C5.45416 1.29364 5.58146 1.2879 5.70991 1.28332L5.82115 1.27988C6.23929 1.26969 6.65756 1.26529 7.07582 1.26669L8.2548 1.26611ZM7.66531 4.13327C6.90489 4.13327 6.17562 4.43535 5.63792 4.97304C5.10022 5.51074 4.79815 6.24001 4.79815 7.00043C4.79815 7.76085 5.10022 8.49012 5.63792 9.02782C6.17562 9.56552 6.90489 9.86759 7.66531 9.86759C8.42573 9.86759 9.155 9.56552 9.6927 9.02782C10.2304 8.49012 10.5325 7.76085 10.5325 7.00043C10.5325 6.24001 10.2304 5.51074 9.6927 4.97304C9.155 4.43535 8.42573 4.13327 7.66531 4.13327ZM7.66531 5.28014C7.89122 5.2801 8.11493 5.32456 8.32366 5.41098C8.53239 5.49739 8.72205 5.62408 8.88182 5.7838C9.0416 5.94351 9.16834 6.13314 9.25483 6.34184C9.34132 6.55054 9.38585 6.77423 9.38589 7.00015C9.38593 7.22606 9.34147 7.44977 9.25505 7.6585C9.16863 7.86723 9.04195 8.05689 8.88223 8.21666C8.72251 8.37643 8.53289 8.50318 8.32419 8.58967C8.11549 8.67616 7.89179 8.72069 7.66588 8.72073C7.20963 8.72073 6.77207 8.53948 6.44945 8.21686C6.12683 7.89425 5.94559 7.45668 5.94559 7.00043C5.94559 6.54418 6.12683 6.10662 6.44945 5.784C6.77207 5.46138 7.20963 5.28014 7.66588 5.28014M10.6764 3.27312C10.4863 3.27312 10.304 3.34864 10.1696 3.48307C10.0351 3.61749 9.95961 3.79981 9.95961 3.98991C9.95961 4.18002 10.0351 4.36234 10.1696 4.49676C10.304 4.63119 10.4863 4.7067 10.6764 4.7067C10.8665 4.7067 11.0488 4.63119 11.1832 4.49676C11.3177 4.36234 11.3932 4.18002 11.3932 3.98991C11.3932 3.79981 11.3177 3.61749 11.1832 3.48307C11.0488 3.34864 10.8665 3.27312 10.6764 3.27312Z" fill="white"/>
</g>
</svg>
