<svg width="15" height="14" viewBox="0 0 15 14" fill="none" xmlns="http://www.w3.org/2000/svg">
<g id="mdi:linkedin">
<path id="Vector" d="M11.6798 1.83936C11.984 1.83936 12.2757 1.96019 12.4907 2.17526C12.7058 2.39034 12.8267 2.68205 12.8267 2.98622V11.0143C12.8267 11.3184 12.7058 11.6101 12.4907 11.8252C12.2757 12.0403 11.984 12.1611 11.6798 12.1611H3.65175C3.34758 12.1611 3.05587 12.0403 2.84079 11.8252C2.62571 11.6101 2.50488 11.3184 2.50488 11.0143V2.98622C2.50488 2.68205 2.62571 2.39034 2.84079 2.17526C3.05587 1.96019 3.34758 1.83936 3.65175 1.83936H11.6798ZM11.3931 10.7275V7.68836C11.3931 7.19257 11.1961 6.71708 10.8455 6.3665C10.495 6.01592 10.0195 5.81897 9.52369 5.81897C9.03627 5.81897 8.46857 6.11716 8.19333 6.56443V5.92792H6.59345V10.7275H8.19333V7.90053C8.19333 7.45899 8.54885 7.09773 8.9904 7.09773C9.20331 7.09773 9.40751 7.18231 9.55807 7.33286C9.70862 7.48342 9.7932 7.68761 9.7932 7.90053V10.7275H11.3931ZM4.7298 5.02764C4.9853 5.02764 5.23033 4.92614 5.411 4.74547C5.59167 4.56481 5.69316 4.31977 5.69316 4.06427C5.69316 3.53098 5.26309 3.09517 4.7298 3.09517C4.47278 3.09517 4.22628 3.19727 4.04454 3.37901C3.8628 3.56076 3.7607 3.80725 3.7607 4.06427C3.7607 4.59756 4.19651 5.02764 4.7298 5.02764ZM5.52687 10.7275V5.92792H3.93846V10.7275H5.52687Z" fill="white"/>
</g>
</svg>
