<svg width="1080" height="257" viewBox="0 0 1080 257" fill="none" xmlns="http://www.w3.org/2000/svg">
<path fill-rule="evenodd" clip-rule="evenodd" d="M115.5 53.5C92.758 53.178 70.092 53.511 47.5 54.5C58.48 53.168 69.813 52.501 81.5 52.5C93.005 52.5 104.338 52.833 115.5 53.5Z" fill="#FFF1FE"/>
<path fill-rule="evenodd" clip-rule="evenodd" d="M536.5 53.5C514.758 53.178 493.091 53.512 471.5 54.5C471.389 53.883 471.056 53.383 470.5 53C492.671 52.17 514.671 52.337 536.5 53.5Z" fill="#FEF1FE"/>
<path fill-rule="evenodd" clip-rule="evenodd" d="M774.5 116.5C774.814 127.255 774.147 137.922 772.5 148.5C763.541 177.622 744.207 196.122 714.5 204C672.698 209.769 643.198 193.602 626 155.5C615.928 121.728 623.761 92.894 649.5 69C681.992 47.014 714.325 47.014 746.5 69C752.685 74.52 758.185 80.687 763 87.5C767.983 96.786 771.816 106.453 774.5 116.5Z" fill="#09CF96"/>
<path fill-rule="evenodd" clip-rule="evenodd" d="M115.5 53.5C115.833 54.167 116.167 54.833 116.5 55.5C96.194 54.547 75.86 54.214 55.5 54.5C52.014 53.829 49.347 54.829 47.5 57.5C47.5 56.5 47.5 55.5 47.5 54.5C70.092 53.511 92.758 53.178 115.5 53.5Z" fill="#D4FFFE"/>
<path fill-rule="evenodd" clip-rule="evenodd" d="M311.5 84.5C311.819 74.584 311.486 64.75 310.5 55C275.168 54.5 239.835 54.333 204.5 54.5C204.47 53.503 204.97 52.836 206 52.5C241.137 53.324 276.304 53.824 311.5 54C312.829 64.265 312.829 74.431 311.5 84.5Z" fill="#CDFBF8"/>
<path fill-rule="evenodd" clip-rule="evenodd" d="M849.5 55.5C835.908 54.353 822.242 54.186 808.5 55C808 55.5 807.5 56 807 56.5C806.216 62.988 805.383 69.322 804.5 75.5C804.363 68.786 804.863 62.12 806 55.5C806.5 55 807 54.5 807.5 54C821.212 53.816 834.878 53.316 848.5 52.5C849.39 53.325 849.72 54.325 849.5 55.5Z" fill="#D6FEFE"/>
<path fill-rule="evenodd" clip-rule="evenodd" d="M993.5 54.5C999.32 53.834 1005.32 53.5 1011.5 53.5C1017.87 53.504 1023.87 54.171 1029.5 55.5C1017.55 54.541 1005.55 54.207 993.5 54.5Z" fill="#D4FEFE"/>
<path fill-rule="evenodd" clip-rule="evenodd" d="M849.5 55.5C850.34 55.842 850.67 56.508 850.5 57.5C836.968 55.447 823.301 54.947 809.5 56C807.633 67.949 805.633 79.782 803.5 91.5C803.687 86.155 804.02 80.822 804.5 75.5C805.383 69.322 806.216 62.988 807 56.5C807.5 56 808 55.5 808.5 55C822.242 54.186 835.908 54.353 849.5 55.5Z" fill="#39C99C"/>
<path fill-rule="evenodd" clip-rule="evenodd" d="M206.5 58.5C238.833 58.5 271.167 58.5 303.5 58.5C303.5 60.5 303.5 62.5 303.5 64.5C271.5 64.5 239.5 64.5 207.5 64.5C207.737 63.209 207.404 62.209 206.5 61.5C206.5 60.5 206.5 59.5 206.5 58.5Z" fill="#00D096"/>
<path fill-rule="evenodd" clip-rule="evenodd" d="M527.5 54.5C537.552 54.71 547.218 56.71 556.5 60.5C591.018 77.52 605.852 105.187 601 143.5C592.559 178.11 570.726 197.777 535.5 202.5C516.83 202.667 498.164 202.5 479.5 202C477.059 201.964 475.059 201.131 473.5 199.5C473.005 151.905 473.505 104.238 475 56.5C492.598 55.84 510.098 55.173 527.5 54.5Z" fill="#05CF95"/>
<path fill-rule="evenodd" clip-rule="evenodd" d="M305.5 87.5C284.164 87.333 262.831 87.5 241.5 88C241.418 96.683 241.418 105.516 241.5 114.5C260.001 113.89 278.334 114.557 296.5 116.5C296.5 124.833 296.5 133.167 296.5 141.5C296.5 142.167 296.167 142.5 295.5 142.5C278.181 141.455 260.847 141.288 243.5 142C241.777 142.523 240.444 143.523 239.5 145C241.074 152.854 242.074 160.687 242.5 168.5C242.5 169.167 242.833 169.5 243.5 169.5C266.393 170.031 289.393 170.864 312.5 172C313.485 181.417 313.818 190.917 313.5 200.5C313.5 200.833 313.5 201.167 313.5 201.5C313.167 201.5 312.833 201.5 312.5 201.5C307.221 201.75 306.387 200.084 310 196.5C310.499 190.843 310.666 185.176 310.5 179.5C291.787 179.82 273.12 179.487 254.5 178.5C254.167 178.833 253.833 179.167 253.5 179.5C270.487 180.499 287.487 180.833 304.5 180.5C304.807 186.093 304.473 191.593 303.5 197C271.502 197.5 239.502 197.667 207.5 197.5C207.5 154.167 207.5 110.833 207.5 67.5C239.74 67.171 271.907 67.504 304 68.5C304.5 67 305 65.5 305.5 64C304.264 62.144 304.264 60.311 305.5 58.5C272.505 57.667 239.505 57.167 206.5 57C206.833 56.667 207.167 56.333 207.5 56C241.863 55.187 276.196 55.354 310.5 56.5C310.76 66.872 310.427 77.206 309.5 87.5C308.167 87.5 306.833 87.5 305.5 87.5Z" fill="#00D095"/>
<path fill-rule="evenodd" clip-rule="evenodd" d="M203.5 56.5C203.333 104.834 203.5 153.168 204 201.5C204.5 202 205 202.5 205.5 203C241.002 203.831 276.336 203.664 311.5 202.5C312.167 202.5 312.5 202.167 312.5 201.5C312.833 201.5 313.167 201.5 313.5 201.5C313.586 202.496 313.252 203.329 312.5 204C275.762 204.826 239.095 204.66 202.5 203.5C202.5 156.833 202.5 110.167 202.5 63.5C202.198 60.941 202.532 58.607 203.5 56.5Z" fill="#D9FEFE"/>
<path fill-rule="evenodd" clip-rule="evenodd" d="M55.5 54.5C75.86 54.214 96.194 54.547 116.5 55.5C153.931 64.939 174.598 88.939 178.5 127.5C177.568 158.562 163.568 181.395 136.5 196C128.596 199.872 120.262 202.038 111.5 202.5C91.133 202.798 70.8 202.465 50.5 201.5C50.843 199.517 50.176 198.183 48.5 197.5C49.202 150.076 49.869 102.743 50.5 55.5C52.415 55.784 54.081 55.451 55.5 54.5Z" fill="#05CF95"/>
<path fill-rule="evenodd" clip-rule="evenodd" d="M55.5 54.5C54.081 55.451 52.415 55.784 50.5 55.5C49.869 102.743 49.202 150.076 48.5 197.5C48.5 199.167 48.5 200.833 48.5 202.5C48.167 202.5 47.833 202.5 47.5 202.5C47.5 154.167 47.5 105.833 47.5 57.5C49.347 54.829 52.014 53.829 55.5 54.5Z" fill="#41CFA9"/>
<path fill-rule="evenodd" clip-rule="evenodd" d="M202.5 63.5C202.5 110.167 202.5 156.833 202.5 203.5C202.414 204.496 202.748 205.329 203.5 206C207.818 206.594 208.318 208.094 205 210.5C202.894 208.623 201.561 206.29 201 203.5C200.833 180.167 200.667 156.833 200.5 133.5C200.5 109.824 201.167 86.49 202.5 63.5Z" fill="#FEF4FE"/>
<path fill-rule="evenodd" clip-rule="evenodd" d="M203.5 56.5C203.833 56.5 204.167 56.5 204.5 56.5C204.5 57.167 204.5 57.833 204.5 58.5C204.168 106.003 204.501 153.336 205.5 200.5C207.203 199.34 207.869 200.007 207.5 202.5C242.167 202.5 276.833 202.5 311.5 202.5C276.336 203.664 241.002 203.831 205.5 203C205 202.5 204.5 202 204 201.5C203.5 153.168 203.333 104.834 203.5 56.5Z" fill="#25C194"/>
<path fill-rule="evenodd" clip-rule="evenodd" d="M204.5 58.5C205.167 58.5 205.833 58.5 206.5 58.5C206.5 59.5 206.5 60.5 206.5 61.5C206.823 107.876 206.49 154.209 205.5 200.5C204.501 153.336 204.168 106.003 204.5 58.5Z" fill="#00D996"/>
<path fill-rule="evenodd" clip-rule="evenodd" d="M447.5 57.5C446.733 56.828 446.066 55.995 445.5 55C410.5 54.333 375.5 54.333 340.5 55C339.874 55.75 339.374 56.584 339 57.5C338.172 105.874 338.338 154.208 339.5 202.5C374.827 203.5 410.16 203.833 445.5 203.5C446.167 203.5 446.833 203.5 447.5 203.5C447.5 203.833 447.5 204.167 447.5 204.5C411.161 204.833 374.827 204.5 338.5 203.5C337.838 178.708 337.505 153.875 337.5 129C337.505 104.125 337.838 79.292 338.5 54.5C374.495 53.333 410.495 53.167 446.5 54C447.337 55.011 447.67 56.178 447.5 57.5Z" fill="#CEFEFE"/>
<path fill-rule="evenodd" clip-rule="evenodd" d="M447.5 57.5C447.5 66.833 447.5 76.167 447.5 85.5C446.373 86.122 445.373 86.955 444.5 88C422.169 88.5 399.836 88.667 377.5 88.5C398.996 87.668 420.663 87.168 442.5 87C443.667 86.5 444.5 85.667 445 84.5C445.755 74.799 445.588 65.132 444.5 55.5C410.165 55.333 375.832 55.5 341.5 56C340.205 59.786 340.205 63.62 341.5 67.5C343.017 66.089 344.351 66.256 345.5 68C343.866 68.494 342.199 68.66 340.5 68.5C340.333 112.835 340.5 157.168 341 201.5C375.931 202.163 410.764 202.83 445.5 203.5C410.16 203.833 374.827 203.5 339.5 202.5C338.338 154.208 338.172 105.874 339 57.5C339.374 56.584 339.874 55.75 340.5 55C375.5 54.333 410.5 54.333 445.5 55C446.066 55.995 446.733 56.828 447.5 57.5Z" fill="#2AC396"/>
<path fill-rule="evenodd" clip-rule="evenodd" d="M377.5 88.5C377.5 96.833 377.5 105.167 377.5 113.5C377.461 114.756 377.961 115.756 379 116.5C396.458 115.199 413.958 115.199 431.5 116.5C431.5 125.167 431.5 133.833 431.5 142.5C430.833 142.5 430.167 142.5 429.5 142.5C412.632 142.812 395.798 142.479 379 141.5C377.97 141.836 377.47 142.503 377.5 143.5C377.5 152.167 377.5 160.833 377.5 169.5C377.47 170.497 377.97 171.164 379 171.5C401.8 170.515 424.634 170.182 447.5 170.5C448.117 170.611 448.617 170.944 449 171.5C449.667 181.167 449.667 190.833 449 200.5C447.961 201.244 447.461 202.244 447.5 203.5C446.833 203.5 446.167 203.5 445.5 203.5C410.764 202.83 375.931 202.163 341 201.5C340.5 157.168 340.333 112.835 340.5 68.5C342.199 68.66 343.866 68.494 345.5 68C344.351 66.256 343.017 66.089 341.5 67.5C340.205 63.62 340.205 59.786 341.5 56C375.832 55.5 410.165 55.333 444.5 55.5C445.588 65.132 445.755 74.799 445 84.5C444.5 85.667 443.667 86.5 442.5 87C420.663 87.168 398.996 87.668 377.5 88.5Z" fill="#02CF95"/>
<path fill-rule="evenodd" clip-rule="evenodd" d="M471.5 54.5C493.091 53.512 514.758 53.178 536.5 53.5C541.862 55.954 547.196 55.954 552.5 53.5C553.167 53.833 553.833 54.167 554.5 54.5C552.922 55.298 551.256 55.798 549.5 56C551.993 57.419 554.326 58.919 556.5 60.5C547.218 56.71 537.552 54.71 527.5 54.5C509.497 54.333 491.497 54.5 473.5 55C472.874 55.75 472.374 56.584 472 57.5C471.333 105.833 471.333 154.167 472 202.5C492.424 203.493 512.924 203.827 533.5 203.5C512.764 204.831 491.931 204.831 471 203.5C470.833 154.83 470.333 106.163 469.5 57.5C468.155 56.653 467.155 55.487 466.5 54C465.5 53.667 464.5 53.333 463.5 53C466.309 52.688 468.976 53.188 471.5 54.5Z" fill="#E2FEFE"/>
<path fill-rule="evenodd" clip-rule="evenodd" d="M527.5 54.5C510.098 55.173 492.598 55.84 475 56.5C473.505 104.238 473.005 151.905 473.5 199.5C475.059 201.131 477.059 201.964 479.5 202C498.164 202.5 516.83 202.667 535.5 202.5C535.158 203.338 534.492 203.672 533.5 203.5C512.924 203.827 492.424 203.493 472 202.5C471.333 154.167 471.333 105.833 472 57.5C472.374 56.584 472.874 55.75 473.5 55C491.497 54.5 509.497 54.333 527.5 54.5Z" fill="#41CDA1"/>
<path fill-rule="evenodd" clip-rule="evenodd" d="M962.5 203.5C950.75 203.811 939.09 203.478 927.5 202.5C926.49 195.042 925.49 187.709 924.5 180.5C924.47 174.949 923.81 169.616 922.5 164.5C921.22 151.47 919.72 138.47 918 125.5C917.67 125.833 917.33 126.167 917 126.5C909.79 151.6 902.45 176.6 895 201.5C893.89 203.037 892.39 203.703 890.5 203.5C881.49 203.666 872.49 203.5 863.5 203C862.22 201.591 861.22 200.091 860.5 198.5C853.99 174.795 847.32 151.128 840.5 127.5C839.807 123.238 838.974 122.905 838 126.5C836.909 135.148 836.076 143.815 835.5 152.5C833.706 164.772 832.373 177.105 831.5 189.5C830.175 188.047 829.342 188.381 829 190.5C828.58 194.191 828.08 197.858 827.5 201.5C823.818 201.665 820.152 201.499 816.5 201C818.396 199.935 818.563 199.102 817 198.5C811.204 199.269 805.371 199.769 799.5 200C804.864 200.171 810.198 200.671 815.5 201.5C808.502 202.625 801.502 202.625 794.5 201.5C794.334 197.154 794.501 192.821 795 188.5C795.718 189.451 796.551 189.617 797.5 189C796.453 177.231 796.453 165.398 797.5 153.5C798.849 132.75 800.849 112.083 803.5 91.5C805.633 79.782 807.633 67.949 809.5 56C823.301 54.947 836.968 55.447 850.5 57.5C859.84 87.852 869.34 118.185 879 148.5C887.48 117.216 896.81 86.216 907 55.5C920.77 54.178 934.6 54.178 948.5 55.5C950.06 58.974 950.9 62.64 951 66.5C955.11 110.215 959.61 153.882 964.5 197.5C964.64 199.841 963.97 201.841 962.5 203.5Z" fill="#07CF96"/>
<path fill-rule="evenodd" clip-rule="evenodd" d="M993.5 54.5C1005.55 54.207 1017.55 54.541 1029.5 55.5C1030.34 55.842 1030.67 56.508 1030.5 57.5C1029.08 57.291 1027.74 56.791 1026.5 56C1015.84 55.5 1005.17 55.333 994.5 55.5C994.58 56.93 994.25 58.264 993.5 59.5C994.33 106.792 994.83 154.126 995 201.5C1006.09 202.487 1017.25 202.821 1028.5 202.5C1027.08 203.451 1025.41 203.784 1023.5 203.5C1013.83 203.666 1004.16 203.5 994.5 203C993.31 202.302 992.31 201.469 991.5 200.5C991.33 152.832 991.5 105.166 992 57.5C992.51 56.473 993.01 55.473 993.5 54.5Z" fill="#2ACFA1"/>
<path fill-rule="evenodd" clip-rule="evenodd" d="M1030.5 57.5C1031.16 106.178 1030.5 154.512 1028.5 202.5C1017.25 202.821 1006.09 202.487 995 201.5C994.83 154.126 994.33 106.792 993.5 59.5C994.25 58.264 994.58 56.93 994.5 55.5C1005.17 55.333 1015.84 55.5 1026.5 56C1027.74 56.791 1029.08 57.291 1030.5 57.5Z" fill="#03CF95"/>
<path fill-rule="evenodd" clip-rule="evenodd" d="M104.5 90.5C122.888 92.377 134.388 102.377 139 120.5C141.268 137.053 136.101 150.553 123.5 161C112.304 167.14 100.304 169.64 87.5 168.5C87.5 142.5 87.5 116.5 87.5 90.5C93.167 90.5 98.833 90.5 104.5 90.5Z" fill="#FCFEFE"/>
<path fill-rule="evenodd" clip-rule="evenodd" d="M530.5 90.5C551.245 94.633 562.245 107.299 563.5 128.5C562.563 151.768 550.563 164.768 527.5 167.5C522.167 167.5 516.833 167.5 511.5 167.5C511.5 141.833 511.5 116.167 511.5 90.5C517.833 90.5 524.167 90.5 530.5 90.5Z" fill="#FCFEFE"/>
<path fill-rule="evenodd" clip-rule="evenodd" d="M305.5 88.5C307.167 88.5 308.833 88.5 310.5 88.5C288.34 89.497 266.006 89.831 243.5 89.5C243.5 97.167 243.5 104.833 243.5 112.5C260.89 112.624 278.224 112.457 295.5 112C296 112.5 296.5 113 297 113.5C297.824 123.009 297.658 132.343 296.5 141.5C296.5 133.167 296.5 124.833 296.5 116.5C296.586 115.504 296.252 114.671 295.5 114C277.836 113.5 260.17 113.333 242.5 113.5C242.5 105.167 242.5 96.833 242.5 88.5C263.5 88.5 284.5 88.5 305.5 88.5Z" fill="#CCFFFB"/>
<path fill-rule="evenodd" clip-rule="evenodd" d="M690.5 89.5C722.844 89.342 737.677 105.342 735 137.5C727.09 163.486 709.923 172.986 683.5 166C670.264 159.727 662.764 149.227 661 134.5C659.362 111.733 669.196 96.733 690.5 89.5Z" fill="#FBFDFE"/>
<path fill-rule="evenodd" clip-rule="evenodd" d="M86.5 89.5C86.5 115.833 86.5 142.167 86.5 168.5C85.469 169.38 84.802 168.88 84.5 167C85.154 141.027 85.82 115.193 86.5 89.5Z" fill="#25BE93"/>
<path fill-rule="evenodd" clip-rule="evenodd" d="M86.5 89.5C92.69 89.177 98.69 89.51 104.5 90.5C98.833 90.5 93.167 90.5 87.5 90.5C87.5 116.5 87.5 142.5 87.5 168.5C87.167 168.5 86.833 168.5 86.5 168.5C86.5 142.167 86.5 115.833 86.5 89.5Z" fill="#B4FEEE"/>
<path fill-rule="evenodd" clip-rule="evenodd" d="M530.5 89.5C523.833 89.5 517.167 89.5 510.5 89.5C510.5 115.833 510.5 142.167 510.5 168.5C509.305 168.134 508.639 167.301 508.5 166C509.797 142.519 509.797 119.019 508.5 95.5C508.608 91.673 509.442 88.007 511 84.5C511.483 85.448 511.649 86.448 511.5 87.5C516.844 87.334 522.177 87.501 527.5 88C528.737 88.232 529.737 88.732 530.5 89.5Z" fill="#25BE93"/>
<path fill-rule="evenodd" clip-rule="evenodd" d="M530.5 89.5C530.5 89.833 530.5 90.167 530.5 90.5C524.167 90.5 517.833 90.5 511.5 90.5C511.5 116.167 511.5 141.833 511.5 167.5C516.833 167.5 522.167 167.5 527.5 167.5C522.025 168.489 516.358 168.822 510.5 168.5C510.5 142.167 510.5 115.833 510.5 89.5C517.167 89.5 523.833 89.5 530.5 89.5Z" fill="#AAFEF0"/>
<path fill-rule="evenodd" clip-rule="evenodd" d="M447.5 85.5C446.766 87.984 445.266 89.984 443 91.5C441.941 91.37 441.108 90.87 440.5 90C419.836 89.5 399.169 89.333 378.5 89.5C378.5 97.167 378.5 104.833 378.5 112.5C396.532 111.847 414.198 112.514 431.5 114.5C413.547 113.527 395.547 113.193 377.5 113.5C377.5 105.167 377.5 96.833 377.5 88.5C399.836 88.667 422.169 88.5 444.5 88C445.373 86.955 446.373 86.122 447.5 85.5Z" fill="#D3FEFE"/>
<path fill-rule="evenodd" clip-rule="evenodd" d="M305.5 87.5C305.5 87.833 305.5 88.167 305.5 88.5C284.5 88.5 263.5 88.5 242.5 88.5C242.5 96.833 242.5 105.167 242.5 113.5C260.17 113.333 277.836 113.5 295.5 114C296.252 114.671 296.586 115.504 296.5 116.5C278.334 114.557 260.001 113.89 241.5 114.5C241.418 105.516 241.418 96.683 241.5 88C262.831 87.5 284.164 87.333 305.5 87.5Z" fill="#2FB992"/>
<path fill-rule="evenodd" clip-rule="evenodd" d="M377.5 113.5C395.547 113.193 413.547 113.527 431.5 114.5C431.5 115.167 431.5 115.833 431.5 116.5C413.958 115.199 396.458 115.199 379 116.5C377.961 115.756 377.461 114.756 377.5 113.5Z" fill="#1FC192"/>
<path fill-rule="evenodd" clip-rule="evenodd" d="M774.5 116.5C775.655 123.655 775.822 130.988 775 138.5C775.083 142.311 774.25 145.645 772.5 148.5C774.147 137.922 774.814 127.255 774.5 116.5Z" fill="#D5FDFB"/>
<path fill-rule="evenodd" clip-rule="evenodd" d="M840.5 127.5C838.702 133.421 837.869 139.754 838 146.5C837.155 148.611 836.322 150.611 835.5 152.5C836.076 143.815 836.909 135.148 838 126.5C838.974 122.905 839.807 123.238 840.5 127.5Z" fill="#D0F9F2"/>
<path fill-rule="evenodd" clip-rule="evenodd" d="M295.5 142.5C295.158 143.338 294.492 143.672 293.5 143.5C276.5 143.5 259.5 143.5 242.5 143.5C242.5 151.833 242.5 160.167 242.5 168.5C242.074 160.687 241.074 152.854 239.5 145C240.444 143.523 241.777 142.523 243.5 142C260.847 141.288 278.181 141.455 295.5 142.5Z" fill="#25C194"/>
<path fill-rule="evenodd" clip-rule="evenodd" d="M429.5 142.5C412.341 143.497 395.008 143.83 377.5 143.5C377.47 142.503 377.97 141.836 379 141.5C395.798 142.479 412.632 142.812 429.5 142.5Z" fill="#31B892"/>
<path fill-rule="evenodd" clip-rule="evenodd" d="M429.5 142.5C430.167 142.5 430.833 142.5 431.5 142.5C430.411 144.117 428.744 144.95 426.5 145C411.837 145.5 397.17 145.667 382.5 145.5C382.5 152.833 382.5 160.167 382.5 167.5C404.833 167.5 427.167 167.5 449.5 167.5C450.603 179.133 450.769 190.8 450 202.5C449.583 203.756 448.75 204.423 447.5 204.5C447.5 204.167 447.5 203.833 447.5 203.5C447.461 202.244 447.961 201.244 449 200.5C449.667 190.833 449.667 181.167 449 171.5C448.617 170.944 448.117 170.611 447.5 170.5C424.339 169.502 401.006 169.169 377.5 169.5C377.5 160.833 377.5 152.167 377.5 143.5C395.008 143.83 412.341 143.497 429.5 142.5Z" fill="#E2FFFD"/>
<path fill-rule="evenodd" clip-rule="evenodd" d="M378.5 146.5C379.821 149.598 380.488 153.098 380.5 157C380.167 160.5 379.833 164 379.5 167.5C378.503 160.532 378.17 153.532 378.5 146.5Z" fill="#FEF2FE"/>
<path fill-rule="evenodd" clip-rule="evenodd" d="M293.5 143.5C277.008 144.497 260.342 144.83 243.5 144.5C243.5 152.5 243.5 160.5 243.5 168.5C266.836 168.333 290.169 168.5 313.5 169C314.252 169.671 314.586 170.504 314.5 171.5C313.527 171.013 312.527 170.513 311.5 170C288.836 169.5 266.169 169.333 243.5 169.5C242.833 169.5 242.5 169.167 242.5 168.5C242.5 160.167 242.5 151.833 242.5 143.5C259.5 143.5 276.5 143.5 293.5 143.5Z" fill="#CBFEFD"/>
<path fill-rule="evenodd" clip-rule="evenodd" d="M243.5 169.5C266.169 169.333 288.836 169.5 311.5 170C312.527 170.513 313.527 171.013 314.5 171.5C314.827 181.348 314.494 191.014 313.5 200.5C313.818 190.917 313.485 181.417 312.5 172C289.393 170.864 266.393 170.031 243.5 169.5Z" fill="#41C09B"/>
<path fill-rule="evenodd" clip-rule="evenodd" d="M377.5 169.5C401.006 169.169 424.339 169.502 447.5 170.5C424.634 170.182 401.8 170.515 379 171.5C377.97 171.164 377.47 170.497 377.5 169.5Z" fill="#30B791"/>
<path fill-rule="evenodd" clip-rule="evenodd" d="M922.5 164.5C923.81 169.616 924.47 174.949 924.5 180.5C923.04 175.402 922.38 170.069 922.5 164.5Z" fill="#B3F6E9"/>
<path fill-rule="evenodd" clip-rule="evenodd" d="M204.5 54.5C239.835 54.333 275.168 54.5 310.5 55C311.486 64.75 311.819 74.584 311.5 84.5C311.567 85.959 311.234 87.292 310.5 88.5C308.833 88.5 307.167 88.5 305.5 88.5C305.5 88.167 305.5 87.833 305.5 87.5C306.833 87.5 308.167 87.5 309.5 87.5C310.427 77.206 310.76 66.872 310.5 56.5C276.196 55.354 241.863 55.187 207.5 56C207.167 56.333 206.833 56.667 206.5 57C239.505 57.167 272.505 57.667 305.5 58.5C304.264 60.311 304.264 62.144 305.5 64C305 65.5 304.5 67 304 68.5C271.907 67.504 239.74 67.171 207.5 67.5C207.5 110.833 207.5 154.167 207.5 197.5C239.502 197.667 271.502 197.5 303.5 197C304.473 191.593 304.807 186.093 304.5 180.5C287.487 180.833 270.487 180.499 253.5 179.5C253.833 179.167 254.167 178.833 254.5 178.5C273.12 179.487 291.787 179.82 310.5 179.5C310.666 185.176 310.499 190.843 310 196.5C306.387 200.084 307.221 201.75 312.5 201.5C312.5 202.167 312.167 202.5 311.5 202.5C276.833 202.5 242.167 202.5 207.5 202.5C207.869 200.007 207.203 199.34 205.5 200.5C206.49 154.209 206.823 107.876 206.5 61.5C207.404 62.209 207.737 63.209 207.5 64.5C239.5 64.5 271.5 64.5 303.5 64.5C303.5 62.5 303.5 60.5 303.5 58.5C271.167 58.5 238.833 58.5 206.5 58.5C205.833 58.5 205.167 58.5 204.5 58.5C204.5 57.833 204.5 57.167 204.5 56.5C204.5 55.833 204.5 55.167 204.5 54.5Z" fill="#09CC95"/>
<path fill-rule="evenodd" clip-rule="evenodd" d="M797.5 153.5C796.453 165.398 796.453 177.231 797.5 189C796.551 189.617 795.718 189.451 795 188.5C794.501 192.821 794.334 197.154 794.5 201.5C801.502 202.625 808.502 202.625 815.5 201.5C810.198 200.671 804.864 200.171 799.5 200C805.371 199.769 811.204 199.269 817 198.5C818.563 199.102 818.396 199.935 816.5 201C820.152 201.499 823.818 201.665 827.5 201.5C828.08 197.858 828.58 194.191 829 190.5C829.342 188.381 830.175 188.047 831.5 189.5C830.833 193.833 830.167 198.167 829.5 202.5C817.532 203.792 805.532 203.792 793.5 202.5C792.652 200.591 792.318 198.591 792.5 196.5C794.214 182.169 795.881 167.836 797.5 153.5Z" fill="#25C998"/>
<path fill-rule="evenodd" clip-rule="evenodd" d="M48.5 197.5C50.176 198.183 50.843 199.517 50.5 201.5C70.8 202.465 91.133 202.798 111.5 202.5C111.5 202.833 111.5 203.167 111.5 203.5C90.454 203.811 69.454 203.477 48.5 202.5C48.5 200.833 48.5 199.167 48.5 197.5Z" fill="#2CBB92"/>
<path fill-rule="evenodd" clip-rule="evenodd" d="M47.5 202.5C47.833 202.5 48.167 202.5 48.5 202.5C69.454 203.477 90.454 203.811 111.5 203.5C101.005 204.167 90.339 204.5 79.5 204.5C68.478 204.499 57.812 203.832 47.5 202.5Z" fill="#CCFEFE"/>
<path fill-rule="evenodd" clip-rule="evenodd" d="M792.5 196.5C792.318 198.591 792.652 200.591 793.5 202.5C805.532 203.792 817.532 203.792 829.5 202.5C829.389 203.117 829.056 203.617 828.5 204C816.486 204.833 804.486 204.666 792.5 203.5C791.234 201.028 791.234 198.694 792.5 196.5Z" fill="#CDFEFD"/>
<path fill-rule="evenodd" clip-rule="evenodd" d="M860.5 198.5C861.22 200.091 862.22 201.591 863.5 203C872.49 203.5 881.49 203.666 890.5 203.5C880.99 204.823 871.33 204.823 861.5 203.5C860.69 201.929 860.36 200.262 860.5 198.5Z" fill="#CAFEFD"/>
<path fill-rule="evenodd" clip-rule="evenodd" d="M927.5 202.5C939.09 203.478 950.75 203.811 962.5 203.5C956.84 204.166 951.01 204.499 945 204.5C938.79 204.496 932.96 203.829 927.5 202.5Z" fill="#CCFFFE"/>
<path fill-rule="evenodd" clip-rule="evenodd" d="M991.5 200.5C992.31 201.469 993.31 202.302 994.5 203C1004.16 203.5 1013.83 203.666 1023.5 203.5C1013.01 204.494 1002.35 204.828 991.5 204.5C991.5 203.167 991.5 201.833 991.5 200.5Z" fill="#CCFEFD"/>
</svg>
