<svg width="304" height="48" viewBox="0 0 304 48" fill="none" xmlns="http://www.w3.org/2000/svg">
<path d="M2.0179 47.1758C1.13878 47.1758 0.699219 46.7363 0.699219 45.8571V2.17583C0.699219 1.29671 1.13878 0.857146 2.0179 0.857146H17.8421C22.3036 0.857146 26.3915 1.86813 30.1058 3.89011C33.8201 5.91209 36.7542 8.69231 38.908 12.2308C41.0838 15.7692 42.1717 19.6923 42.1717 24C42.1717 28.3077 41.0948 32.2308 38.941 35.7692C36.7871 39.3077 33.8531 42.0989 30.1388 44.1429C26.4465 46.1648 22.3805 47.1758 17.941 47.1758H2.0179ZM18.3036 36.9231C20.7652 36.9231 22.9849 36.3736 24.963 35.2747C26.941 34.1758 28.4904 32.6484 29.6113 30.6923C30.7542 28.7363 31.3256 26.5055 31.3256 24C31.3256 21.5385 30.7542 19.3297 29.6113 17.3736C28.4904 15.3956 26.93 13.8571 24.93 12.7582C22.952 11.6593 20.7212 11.1099 18.2377 11.1099H11.3805V36.9231H18.3036Z" fill="white"/>
<path d="M83.5125 45.8571C83.5125 46.7363 83.073 47.1758 82.1938 47.1758H50.9411C50.062 47.1758 49.6224 46.7363 49.6224 45.8571V2.17583C49.6224 1.29671 50.062 0.857146 50.9411 0.857146H81.7323C82.6114 0.857146 83.051 1.29671 83.051 2.17583V9.26374C83.051 10.1429 82.6114 10.5824 81.7323 10.5824H60.3037V18.9231H76.7872C77.6664 18.9231 78.1059 19.3626 78.1059 20.2418V26.7692C78.1059 27.6484 77.6664 28.0879 76.7872 28.0879H60.3037V37.4506H82.1938C83.073 37.4506 83.5125 37.8901 83.5125 38.7692V45.8571Z" fill="white"/>
<path d="M124.891 45.8571C124.891 46.7363 124.451 47.1758 123.572 47.1758H92.3192C91.4401 47.1758 91.0005 46.7363 91.0005 45.8571V2.17583C91.0005 1.29671 91.4401 0.857146 92.3192 0.857146H123.11C123.99 0.857146 124.429 1.29671 124.429 2.17583V9.26374C124.429 10.1429 123.99 10.5824 123.11 10.5824H101.682V18.9231H118.165C119.044 18.9231 119.484 19.3626 119.484 20.2418V26.7692C119.484 27.6484 119.044 28.0879 118.165 28.0879H101.682V37.4506H123.572C124.451 37.4506 124.891 37.8901 124.891 38.7692V45.8571Z" fill="white"/>
<path d="M133.697 47.1758C132.818 47.1758 132.379 46.7363 132.379 45.8571V2.17583C132.379 1.29671 132.818 0.857146 133.697 0.857146H149.522C153.983 0.857146 158.071 1.86813 161.785 3.89011C165.5 5.91209 168.434 8.69231 170.587 12.2308C172.763 15.7692 173.851 19.6923 173.851 24C173.851 28.3077 172.774 32.2308 170.62 35.7692C168.467 39.3077 165.533 42.0989 161.818 44.1429C158.126 46.1648 154.06 47.1758 149.62 47.1758H133.697ZM149.983 36.9231C152.445 36.9231 154.664 36.3736 156.642 35.2747C158.62 34.1758 160.17 32.6484 161.291 30.6923C162.434 28.7363 163.005 26.5055 163.005 24C163.005 21.5385 162.434 19.3297 161.291 17.3736C160.17 15.3956 158.609 13.8571 156.609 12.7582C154.631 11.6593 152.401 11.1099 149.917 11.1099H143.06V36.9231H149.983Z" fill="white"/>
<path d="M202.862 48C198.423 48 194.368 46.9341 190.697 44.8022C187.027 42.6483 184.126 39.7363 181.994 36.0659C179.884 32.3736 178.829 28.3297 178.829 23.9341C178.829 19.5385 179.884 15.5165 181.994 11.8681C184.104 8.1978 186.994 5.30769 190.665 3.1978C194.335 1.06593 198.401 0 202.862 0C207.302 0 211.357 1.06593 215.027 3.1978C218.697 5.30769 221.588 8.1978 223.697 11.8681C225.829 15.5165 226.895 19.5385 226.895 23.9341C226.895 28.3297 225.829 32.3736 223.697 36.0659C221.588 39.7363 218.697 42.6483 215.027 44.8022C211.357 46.9341 207.302 48 202.862 48ZM202.862 37.7473C205.214 37.7473 207.401 37.1429 209.423 35.9341C211.445 34.7253 213.049 33.0659 214.236 30.956C215.445 28.8462 216.049 26.5165 216.049 23.967C216.049 21.4396 215.445 19.1319 214.236 17.044C213.027 14.9341 211.412 13.2747 209.39 12.0659C207.368 10.8571 205.192 10.2527 202.862 10.2527C200.511 10.2527 198.324 10.8571 196.302 12.0659C194.28 13.2747 192.665 14.9341 191.456 17.044C190.269 19.1319 189.675 21.4396 189.675 23.967C189.675 26.5165 190.28 28.8462 191.489 30.956C192.697 33.044 194.313 34.7033 196.335 35.9341C198.357 37.1429 200.533 37.7473 202.862 37.7473Z" fill="white"/>
<path d="M241.398 45.9231C241.288 46.7582 240.827 47.1758 240.014 47.1758H231.871C231.431 47.1758 231.102 47.0549 230.882 46.8132C230.662 46.5714 230.574 46.2308 230.618 45.7912L236.124 2.07692C236.168 1.68132 236.31 1.38462 236.552 1.18682C236.816 0.967036 237.146 0.857146 237.541 0.857146H247.201C247.97 0.857146 248.453 1.23077 248.651 1.97802L257.75 32.3407L266.816 1.97802C267.014 1.23077 267.497 0.857146 268.266 0.857146H277.926C278.321 0.857146 278.64 0.967036 278.882 1.18682C279.146 1.38462 279.299 1.68132 279.343 2.07692L284.882 45.8242C284.926 46.2637 284.838 46.6044 284.618 46.8462C284.398 47.0879 284.069 47.2088 283.629 47.2088H275.453C274.64 47.2088 274.179 46.7912 274.069 45.956L271.102 18L262.761 46.0549C262.563 46.8022 262.08 47.1758 261.31 47.1758H254.288C253.519 47.1758 253.036 46.8022 252.838 46.0549L244.497 18L241.398 45.9231Z" fill="white"/>
<path d="M303.303 45.8571C303.303 46.7363 302.863 47.1758 301.984 47.1758H293.94C293.061 47.1758 292.622 46.7363 292.622 45.8571V2.17583C292.622 1.29671 293.061 0.857146 293.94 0.857146H301.984C302.863 0.857146 303.303 1.29671 303.303 2.17583V45.8571Z" fill="white"/>
</svg>
